<svg viewBox="0 0 32 32" xml:space="preserve" xmlns="http://www.w3.org/2000/svg"><g fill="none" stroke="#FFFFFF" stroke-linecap="round" stroke-linejoin="round" stroke-miterlimit="10" stroke-width="2" class="stroke-ffffff"></g><path d="M16.707 6.293A1 1 0 0 0 15 7v22a1 1 0 0 0 2 0V9.414l7.293 7.293a.999.999 0 1 0 1.414-1.414l-9-9zM12 10a.997.997 0 0 0-.707.293l-5 5a.999.999 0 1 0 1.414 1.413l5-5A.999.999 0 0 0 12 10z" fill="#ffffff" class="fill-000000"></path><path d="M3 11a1 1 0 0 0 1-1V4h24v6a1 1 0 1 0 2 0V3a1 1 0 0 0-1-1H3a1 1 0 0 0-1 1v7a1 1 0 0 0 1 1z" fill="#ffffff" class="fill-000000"></path></svg>